<svg id="Ebene_1" data-name="Ebene 1" xmlns="http://www.w3.org/2000/svg" viewBox="0 0 219 40"><defs><style>.cls-1{fill:#f9f9f9;}.cls-2{fill:#0069b4;}.cls-3{fill:#c53031;}</style></defs><path class="cls-1" d="M181.84,20a17.16,17.16,0,0,0,9.67,15.44L183.33,13A17.09,17.09,0,0,0,181.84,20Z"/><path class="cls-1" d="M210.58,19.13a9,9,0,0,0-1.41-4.73c-.87-1.41-1.69-2.61-1.69-4a3,3,0,0,1,2.88-3.05l.22,0a17.14,17.14,0,0,0-25.92,3.23l1.11,0c1.79,0,4.57-.22,4.57-.22a.71.71,0,0,1,.11,1.41s-.93.11-2,.17l6.24,18.58,3.76-11.26L195.82,12c-.93-.06-1.8-.17-1.8-.17a.71.71,0,0,1,.11-1.41s2.83.22,4.51.22,4.58-.22,4.58-.22a.71.71,0,0,1,.11,1.41s-.93.11-2,.17l6.2,18.44,1.72-5.72A20.72,20.72,0,0,0,210.58,19.13Z"/><path class="cls-1" d="M199.3,21.5l-5.15,15a17.2,17.2,0,0,0,10.55-.27c0-.08-.09-.16-.13-.24Z"/><path class="cls-1" d="M214.05,11.77a12.07,12.07,0,0,1,.12,1.76,16.23,16.23,0,0,1-1.31,6.15l-5.24,15.15a17.13,17.13,0,0,0,6.43-23.06Z"/><path class="cls-1" d="M199,0a20,20,0,1,0,20,20A20,20,0,0,0,199,0Zm0,39.08A19.08,19.08,0,1,1,218.08,20,19.1,19.1,0,0,1,199,39.08Z"/><path class="cls-2" d="M112.92,1.82H87.27a5.08,5.08,0,1,0,0,10.16h8.14V38.21h10.17V12h7.34a5.08,5.08,0,0,0,0-10.16Z"/><path class="cls-2" d="M35.81,6.9a5.07,5.07,0,0,0-5.08-5.08H5.08A5.08,5.08,0,0,0,5.08,12h8.14V38.21H23.39V12h7.34A5.07,5.07,0,0,0,35.81,6.9Z"/><path class="cls-2" d="M44.36,38.21l2.77-17.44,7.13,14.58h0a5.07,5.07,0,0,0,4.41,2.85H59a5.06,5.06,0,0,0,4.4-2.82h0l7.42-14.82,2.8,17.64H83.9L79,7.11h0A6.31,6.31,0,0,0,67,5.43L58.89,21.66,51,5.48A6.31,6.31,0,0,0,39,7.11s-3.89,24.43-4.95,31.1Z"/><path class="cls-3" d="M158.59,10.61a6.65,6.65,0,0,0-9.06.66l-1,1-.95-1a6.65,6.65,0,0,0-9.06-.66,7,7,0,0,0-.48,10.1l9.39,9.7a1.53,1.53,0,0,0,2.2,0l9.39-9.7a7,7,0,0,0-.47-10.1Z"/></svg>